<?xml version="1.0" encoding="UTF-8"?>
<svg width="1024" height="1024" viewBox="0 0 1024 1024" xmlns="http://www.w3.org/2000/svg">
  <defs>
    <linearGradient id="bg" x1="0" y1="0" x2="1" y2="1">
      <stop offset="0" stop-color="#FF8A4C"/>
      <stop offset="1" stop-color="#FF4D8D"/>
    </linearGradient>
    <radialGradient id="gloss" cx="0.3" cy="0.18" r="0.9">
      <stop offset="0" stop-color="#FFFFFF" stop-opacity="0.22"/>
      <stop offset="0.5" stop-color="#FFFFFF" stop-opacity="0"/>
    </radialGradient>
  </defs>

  <!-- App body (rounded-square) -->
  <rect x="100" y="100" width="824" height="824" rx="185" fill="url(#bg)"/>
  <rect x="100" y="100" width="824" height="824" rx="185" fill="url(#gloss)"/>

  <!-- 3x3 macro-key grid (stream-deck motif) -->
  <g>
    <!-- shadows -->
    <g fill="#7A1B3D" fill-opacity="0.16">
      <rect x="196" y="204" width="180" height="180" rx="42"/>
      <rect x="422" y="204" width="180" height="180" rx="42"/>
      <rect x="648" y="204" width="180" height="180" rx="42"/>
      <rect x="196" y="430" width="180" height="180" rx="42"/>
      <rect x="422" y="430" width="180" height="180" rx="42"/>
      <rect x="648" y="430" width="180" height="180" rx="42"/>
      <rect x="196" y="656" width="180" height="180" rx="42"/>
      <rect x="422" y="656" width="180" height="180" rx="42"/>
      <rect x="648" y="656" width="180" height="180" rx="42"/>
    </g>
    <!-- keys (center key highlighted) -->
    <g fill="#FFFFFF">
      <rect x="196" y="196" width="180" height="180" rx="42" fill-opacity="0.86"/>
      <rect x="422" y="196" width="180" height="180" rx="42" fill-opacity="0.86"/>
      <rect x="648" y="196" width="180" height="180" rx="42" fill-opacity="0.86"/>
      <rect x="196" y="422" width="180" height="180" rx="42" fill-opacity="0.86"/>
      <rect x="422" y="422" width="180" height="180" rx="42" fill-opacity="1.0"/>
      <rect x="648" y="422" width="180" height="180" rx="42" fill-opacity="0.86"/>
      <rect x="196" y="648" width="180" height="180" rx="42" fill-opacity="0.86"/>
      <rect x="422" y="648" width="180" height="180" rx="42" fill-opacity="0.86"/>
      <rect x="648" y="648" width="180" height="180" rx="42" fill-opacity="0.86"/>
    </g>
  </g>
</svg>
